# xmcd
#
# Track frame offsets: 
#        150
#        41857
#        66750
#        113479
#        143063
#        159726
#        173472
#        190236
#        201625
#        213827
#        229608
#
# Disc length: 3298 seconds
#
# Revision: 2
# Processed by: cddbd v1.5.2PL0 Copyright (c) Steve Scherf et al.
# Submitted via: ExactAudioCopyFreeDBPlugin 1.0
#
DISCID=980ce00b
DTITLE=The Isley Brothers - Givin' It Back
DYEAR=1971
DGENRE=Rhythm and Blues
TTITLE0=Ohio - Machine Gun
TTITLE1=Fire and Rain
TTITLE2=Lay Lady Lay
TTITLE3=Spill the Wine
TTITLE4=Nothing to Do But Today
TTITLE5=Cold Bologna
TTITLE6=Love the One You're With
TTITLE7=Warpath (mono)
TTITLE8=Spill the Wine (single) (mono)
TTITLE9=Love the One You're With (single) (mono)
TTITLE10=Lay Lady Lay (single) (mono)
EXTD=
EXTT0=
EXTT1=
EXTT2=
EXTT3=
EXTT4=
EXTT5=
EXTT6=
EXTT7=
EXTT8=
EXTT9=
EXTT10=
PLAYORDER=
